<?xml version="1.0" standalone="no"?>
<!DOCTYPE svg PUBLIC "-//W3C//DTD SVG 20010904//EN"
 "http://www.w3.org/TR/2001/REC-SVG-20010904/DTD/svg10.dtd">
<svg version="1.0" xmlns="http://www.w3.org/2000/svg"
 width="534.000000pt" height="534.000000pt" viewBox="0 0 534.000000 534.000000"
 preserveAspectRatio="xMidYMid meet">
<metadata>
Created by potrace 1.11, written by Peter Selinger 2001-2013
</metadata>
<g transform="translate(0.000000,534.000000) scale(0.100000,-0.100000)"
fill="#000000" stroke="none">
<path d="M244 5310 c-12 -5 -65 -50 -118 -102 l-97 -93 3 -497 c3 -462 4 -499
21 -515 16 -16 43 -18 310 -18 371 0 359 -3 526 142 97 84 126 116 148 162
l28 56 3 308 c3 342 -1 376 -58 454 -38 51 -110 88 -200 103 -78 12 -536 12
-566 0z m607 -80 c56 -16 101 -51 129 -100 l25 -45 0 -310 c0 -302 -1 -311
-22 -352 -27 -50 -73 -87 -128 -102 -24 -7 -148 -11 -317 -11 l-278 0 0 465 0
465 278 0 c155 0 293 -5 313 -10z"/>
<path d="M500 4770 l0 -260 113 0 c161 0 152 -15 152 262 0 272 8 258 -156
258 l-109 0 0 -260z"/>
<path d="M1653 5303 c-17 -10 -70 -54 -117 -99 l-86 -81 0 -501 0 -501 26 -20
c24 -19 40 -21 148 -21 140 0 126 -6 264 119 l82 74 0 73 0 72 34 12 c19 6 40
18 48 27 11 14 14 -12 18 -160 4 -152 8 -179 23 -194 15 -15 39 -19 146 -21
154 -4 152 -5 276 111 l90 84 0 496 0 496 -23 23 c-20 21 -34 23 -138 26 -64
2 -131 1 -148 -2 -21 -4 -62 -33 -117 -84 -47 -42 -92 -83 -101 -90 -15 -12
-21 -5 -57 67 -53 105 -65 111 -218 111 -94 0 -125 -4 -150 -17z m346 -197
c39 -73 78 -140 87 -147 31 -26 62 8 133 146 l66 130 128 3 127 3 0 -466 0
-465 -120 0 -120 0 -2 298 -3 297 -62 -122 c-64 -124 -81 -143 -128 -143 -46
0 -61 17 -120 132 -31 62 -61 117 -66 123 -5 5 -9 -107 -9 -288 l0 -297 -115
0 -115 0 0 465 0 465 124 0 125 0 70 -134z"/>
<path d="M3194 5310 c-12 -4 -65 -50 -118 -102 l-97 -93 3 -497 c3 -462 4
-499 21 -515 15 -15 39 -19 146 -21 154 -4 152 -5 274 110 l89 83 5 62 c5 56
8 61 32 66 33 7 219 172 232 205 15 39 11 223 -6 255 -14 28 -14 29 50 90 l65
62 0 127 c0 109 -3 129 -19 149 l-19 24 -319 2 c-175 1 -328 -2 -339 -7z m636
-170 l0 -100 -190 0 -191 0 3 -102 3 -103 133 -3 132 -3 0 -99 0 -99 -132 -3
-133 -3 -3 -157 -3 -158 -119 0 -120 0 0 465 0 465 310 0 310 0 0 -100z"/>
<path d="M4455 5291 c-22 -16 -73 -61 -112 -99 l-73 -69 0 -501 0 -501 26 -20
c24 -19 40 -21 155 -21 144 0 128 -7 254 109 l60 56 5 -62 c8 -94 14 -97 173
-101 l133 -3 50 39 c27 22 77 66 112 99 l62 59 0 255 c0 255 0 255 -26 307
-18 37 -38 59 -65 75 -21 12 -39 27 -39 33 0 6 25 72 56 147 62 152 66 193 24
214 -31 16 -237 18 -276 3 -14 -6 -59 -40 -98 -77 l-71 -66 -5 56 c-8 87 -16
91 -173 95 l-132 3 -40 -30z m287 -233 l3 -183 41 -3 41 -3 53 128 c29 70 63
153 75 183 l23 55 116 3 c64 1 116 -1 116 -6 0 -4 -31 -84 -70 -177 -38 -92
-67 -172 -64 -177 3 -4 20 -8 37 -8 44 0 90 -31 110 -73 14 -29 17 -71 17
-261 l0 -226 -120 0 -120 0 0 160 c0 206 4 200 -150 200 l-110 0 0 -180 0
-180 -119 0 c-99 0 -120 3 -125 16 -8 20 -8 878 0 898 5 13 26 16 125 16 l119
0 2 -182z"/>
<path d="M2740 3471 c-52 -17 -89 -42 -128 -86 l-40 -45 -318 25 c-176 13
-382 31 -459 39 -77 9 -267 25 -423 37 -274 21 -283 21 -329 4 -124 -48 -244
-244 -298 -487 l-17 -78 -55 0 -55 0 -124 118 c-167 156 -180 164 -271 160
-62 -3 -77 -7 -110 -34 -21 -16 -50 -54 -65 -84 -55 -106 -29 -217 71 -315 28
-27 51 -53 51 -57 0 -4 -23 -36 -50 -70 -106 -132 -103 -270 8 -370 47 -42 84
-53 158 -43 73 9 90 22 211 173 71 88 83 93 171 76 29 -6 30 -9 37 -73 31
-291 167 -510 317 -511 96 0 567 101 818 176 164 50 335 130 464 218 142 99
236 149 284 153 40 4 57 -1 117 -33 207 -111 338 -157 495 -175 109 -12 290
-7 409 12 75 12 215 -4 445 -51 82 -16 151 -30 153 -30 1 0 3 -11 3 -25 0 -36
25 -80 57 -103 56 -39 458 -152 542 -152 96 0 198 65 256 165 39 66 55 146 53
271 -1 124 -11 149 -59 142 -40 -5 -51 -42 -44 -146 3 -51 1 -110 -5 -130 -13
-52 -62 -125 -100 -152 l-32 -23 35 51 c56 82 70 139 71 282 l1 125 68 169
c38 93 77 208 87 255 28 125 41 293 30 376 -5 38 -7 71 -6 73 2 1 12 -14 22
-35 16 -32 19 -60 18 -168 0 -166 -22 -275 -85 -436 -27 -69 -49 -133 -49
-143 0 -34 20 -56 51 -56 28 0 33 6 64 73 86 191 127 366 128 562 2 148 -16
218 -71 277 -32 34 -50 43 -142 69 -125 34 -141 35 -196 9 -53 -26 -98 -84
-334 -423 -102 -146 -188 -266 -191 -267 -3 0 -302 98 -664 219 l-659 219 -13
62 c-18 90 -64 154 -137 192 -43 22 -128 32 -166 19z m131 -135 c53 -36 73
-85 66 -161 l-6 -62 252 -82 c361 -118 340 -110 333 -135 -3 -11 -26 -109 -52
-216 -26 -107 -52 -199 -58 -203 -16 -12 -209 1 -287 19 -37 8 -101 33 -144
55 -42 21 -85 39 -96 39 -29 0 -53 -44 -42 -76 21 -62 263 -148 453 -160 89
-6 97 -9 92 -26 -2 -10 -7 -20 -11 -22 -14 -9 -231 15 -306 34 -50 12 -137 48
-232 97 -126 63 -162 77 -210 81 -76 5 -144 -21 -265 -100 -114 -75 -253 -160
-293 -181 -43 -21 -338 -123 -411 -141 -91 -23 -384 -84 -384 -80 0 15 26 55
39 58 9 3 88 21 176 41 207 46 312 77 460 135 197 78 215 89 215 143 0 22 -27
57 -44 57 -6 0 -51 -20 -101 -44 -49 -25 -157 -66 -240 -92 -158 -49 -402
-110 -410 -102 -3 3 2 24 10 48 26 75 55 234 66 367 18 229 -18 487 -90 634
-17 35 -30 63 -28 64 1 1 99 -6 217 -17 391 -33 1075 -88 1090 -88 8 1 25 22
37 48 43 89 130 118 204 68z m2140 4 c50 -28 71 -158 50 -326 -10 -82 -45
-241 -55 -251 -8 -9 -406 103 -406 114 0 13 286 413 315 441 36 33 63 39 96
22z m-3846 -20 c121 -75 198 -411 166 -722 -27 -269 -95 -460 -201 -570 -51
-52 -60 -58 -98 -58 -34 0 -48 6 -78 37 -63 63 -121 216 -138 366 l-6 57 32 0
c30 -1 35 -5 60 -60 64 -143 200 -133 274 21 50 101 67 199 62 342 -5 134 -26
211 -73 273 -29 38 -88 60 -132 49 -39 -9 -107 -83 -128 -139 -15 -39 -22 -46
-45 -46 l-28 0 14 63 c42 184 124 337 209 389 39 23 70 23 110 -2z m-867 -302
c18 -13 88 -76 156 -141 l124 -118 234 -9 c128 -5 255 -10 282 -10 l49 0 -7
-84 c-10 -131 9 -120 -200 -112 -100 3 -233 9 -297 12 l-115 7 -97 -120 c-117
-145 -149 -163 -217 -128 -56 29 -78 115 -43 165 10 14 48 62 85 108 37 46 68
87 68 91 0 4 -43 49 -95 99 -52 51 -98 104 -101 117 -26 106 87 185 174 123z
m3373 -151 l27 -12 -63 -263 c-35 -145 -65 -266 -68 -268 -10 -11 -77 -16 -77
-6 0 5 29 132 65 282 36 150 65 274 65 276 0 7 25 3 51 -9z m179 -57 c17 -6
20 -8 7 -9 -30 -2 -67 -47 -67 -81 0 -37 47 -90 80 -90 55 0 90 87 55 136 -12
18 19 11 208 -51 122 -40 251 -83 287 -96 65 -24 65 -24 74 -73 18 -91 -31
-272 -89 -326 -18 -17 -30 -20 -59 -15 -20 4 -36 9 -36 12 0 3 11 14 25 25 19
15 25 29 25 59 0 50 -27 79 -74 79 -37 0 -76 -36 -76 -71 0 -25 21 -69 33 -69
6 0 8 -2 5 -5 -2 -3 -45 4 -94 15 -49 12 -126 28 -171 37 -78 16 -83 18 -83
43 0 44 -26 70 -70 70 -30 0 -43 -6 -59 -26 -12 -15 -21 -33 -21 -40 0 -10 -9
-12 -32 -7 -18 3 -34 6 -34 7 -1 1 86 366 111 464 6 23 14 25 55 12z m1105
-162 c7 -8 -16 -48 -28 -48 -17 0 -315 83 -385 107 -50 17 -52 19 -38 39 15
21 15 21 232 -37 119 -32 218 -60 219 -61z m-137 -140 c67 -19 73 -23 66 -42
-4 -12 -8 -82 -8 -156 -1 -119 -4 -140 -25 -182 -28 -59 -89 -112 -141 -126
-34 -8 -62 -4 -192 30 -84 22 -160 44 -168 49 -10 6 -7 7 11 3 35 -8 101 26
132 68 64 85 107 224 107 344 l0 73 73 -20 c39 -11 105 -29 145 -41z"/>
<path d="M4260 2632 c-56 -18 -70 -95 -24 -131 34 -27 55 -26 82 2 50 53 6
150 -58 129z"/>
<path d="M4000 2498 c-12 -14 -20 -35 -20 -58 0 -89 106 -112 140 -30 32 77
-64 148 -120 88z"/>
<path d="M1865 1236 c-27 -7 -66 -21 -85 -31 -44 -23 -228 -188 -256 -229 -42
-62 -46 -95 -42 -416 l3 -305 28 -57 c57 -116 155 -166 342 -175 126 -6 229 7
298 40 49 23 136 94 229 188 87 88 90 101 86 486 -3 354 -2 348 -76 426 -62
64 -121 80 -312 83 -111 2 -182 -1 -215 -10z m397 -75 c75 -24 120 -65 138
-128 8 -25 10 -141 8 -344 l-3 -306 -28 -42 c-55 -83 -199 -118 -415 -100
-121 10 -189 40 -229 100 l-28 42 -3 314 c-3 291 -1 316 16 357 31 69 104 111
227 130 69 10 251 -3 317 -23z"/>
<path d="M1993 973 c-13 -2 -32 -16 -43 -30 -19 -24 -20 -40 -20 -234 0 -203
1 -208 23 -235 44 -51 191 -43 216 12 14 31 15 411 2 447 -15 39 -93 56 -178
40z"/>
<path d="M4584 1240 c-76 -15 -114 -39 -229 -140 -90 -80 -120 -113 -142 -158
l-28 -57 0 -300 c0 -263 2 -306 18 -352 22 -62 85 -136 139 -164 119 -61 388
-65 515 -9 24 10 92 62 153 116 86 75 116 109 137 153 l28 56 0 330 c0 328 0
330 -24 375 -13 25 -33 56 -45 68 -29 32 -100 67 -164 81 -60 12 -296 13 -358
1z m319 -64 c125 -24 177 -61 205 -145 16 -47 15 -604 -1 -648 -17 -46 -63
-92 -113 -114 -88 -39 -341 -42 -452 -5 -66 22 -117 79 -131 148 -14 65 -14
532 0 598 12 57 53 111 102 137 76 39 264 53 390 29z"/>
<path d="M4691 970 c-48 -21 -50 -31 -51 -262 0 -203 1 -219 19 -237 40 -40
166 -41 205 -2 20 21 21 30 21 241 0 211 -1 220 -21 241 -16 16 -37 22 -85 25
-35 2 -75 -1 -88 -6z"/>
<path d="M415 1231 c-28 -12 -187 -157 -202 -184 -15 -27 -17 -203 -3 -244 14
-38 46 -53 116 -53 l55 0 -54 -50 c-30 -28 -65 -59 -79 -69 -13 -11 -37 -43
-53 -73 l-30 -53 -3 -212 c-4 -203 -3 -212 17 -232 20 -20 30 -21 348 -21 376
0 332 -11 462 111 l81 77 0 126 c0 163 -2 166 -127 166 l-88 1 87 82 c121 115
123 119 123 307 0 153 0 156 -29 208 -58 104 -92 115 -376 119 -124 1 -234 -1
-245 -6z m463 -72 c59 -12 104 -52 120 -107 7 -22 12 -88 12 -148 -1 -177 -28
-214 -207 -278 -187 -67 -197 -74 -191 -139 l3 -32 198 -3 197 -2 0 -100 0
-100 -315 0 -315 0 0 173 c0 273 11 292 225 368 76 27 144 54 151 60 18 14 18
95 2 106 -7 4 -85 10 -173 13 l-160 5 -3 84 c-2 46 -1 90 2 98 7 16 378 19
454 2z"/>
<path d="M3115 1226 c-16 -8 -69 -52 -117 -98 l-88 -84 0 -121 c0 -154 6 -165
105 -171 l68 -5 -90 -86 c-123 -118 -128 -133 -128 -389 0 -192 0 -194 24
-213 22 -18 43 -19 352 -19 l329 0 94 82 c51 46 99 93 105 106 6 13 11 72 11
131 0 94 -3 112 -21 135 -19 25 -25 26 -110 26 l-90 0 85 75 c121 108 131 132
131 315 0 158 -7 186 -61 249 -56 67 -91 75 -344 78 -180 3 -231 0 -255 -11z
m469 -66 c53 -12 87 -38 111 -86 29 -56 29 -270 1 -328 -25 -49 -84 -87 -190
-122 -106 -35 -169 -62 -178 -77 -4 -7 -8 -31 -8 -54 l0 -43 200 0 201 0 -3
-98 -3 -97 -315 0 -315 0 0 170 c0 249 25 297 182 349 117 39 195 72 204 87 5
8 9 28 9 46 0 56 -23 63 -197 63 l-153 0 0 93 c0 52 3 97 7 100 10 10 402 8
447 -3z"/>
</g>
</svg>
