<?xml version="1.0" encoding="utf-8"?>
<!-- Generator: Adobe Illustrator 23.0.3, SVG Export Plug-In . SVG Version: 6.00 Build 0)  -->
<svg version="1.1" id="Ebene_1" xmlns="http://www.w3.org/2000/svg" xmlns:xlink="http://www.w3.org/1999/xlink" x="0px" y="0px"
	 viewBox="0 0 283.46 128.64" style="enable-background:new 0 0 283.46 128.64;" xml:space="preserve">
<style type="text/css">
	.st0{fill:#FFFFFF;}
</style>
<g>
	<g>
		<g>
			<path class="st0" d="M141.73,8.63c0.35,0,0.69,0.03,1.04,0.05V0h-2.08v8.68C141.04,8.66,141.38,8.63,141.73,8.63z"/>
			<path class="st0" d="M152.47,11.82l4.33-7.5L155,3.28l-4.33,7.51C151.29,11.1,151.89,11.44,152.47,11.82z"/>
			<path class="st0" d="M132.79,10.78l-4.33-7.51l-1.8,1.04l4.33,7.5C131.57,11.44,132.17,11.1,132.79,10.78z"/>
			<path class="st0" d="M159.28,19.41l7.52-4.34l-1.04-1.8l-7.51,4.34C158.62,18.19,158.97,18.79,159.28,19.41z"/>
			<path class="st0" d="M125.22,17.61l-7.51-4.34l-1.04,1.8l7.52,4.34C124.5,18.79,124.84,18.19,125.22,17.61z"/>
			<path class="st0" d="M161.33,26.31c0.06,0.59,0.1,1.19,0.11,1.79h8.64v-1.79H161.33z"/>
			<path class="st0" d="M113.39,26.31v1.79h8.64c0.01-0.6,0.05-1.2,0.11-1.79H113.39z"/>
		</g>
		<path class="st0" d="M127.48,28.1c0.13-7.76,6.46-14.01,14.25-14.01c7.79,0,14.12,6.25,14.25,14.01h3.31
			c-0.13-9.59-7.94-17.32-17.56-17.32c-9.62,0-17.43,7.74-17.56,17.32H127.48z"/>
	</g>
	<g>
		<path class="st0" d="M34.73,76.12c0,1.8-0.33,3.46-1,4.98c-0.67,1.52-1.7,2.83-3.11,3.92c-1.4,1.09-3.19,1.95-5.34,2.56
			c-2.16,0.61-4.72,0.92-7.68,0.92c-5.21,0-9.24-0.93-12.1-2.8c-2.86-1.87-4.69-4.57-5.5-8.12l6.45-1.28c0.25,1.05,0.64,2,1.16,2.86
			c0.52,0.86,1.23,1.61,2.13,2.24c0.9,0.63,2.01,1.11,3.33,1.45c1.32,0.34,2.89,0.51,4.73,0.51c1.57,0,2.99-0.13,4.27-0.41
			c1.28-0.27,2.37-0.69,3.28-1.25c0.91-0.56,1.61-1.28,2.1-2.15c0.49-0.87,0.74-1.92,0.74-3.14c0-1.35-0.34-2.46-1.03-3.31
			c-0.69-0.85-1.6-1.55-2.73-2.1c-1.13-0.55-2.42-1.01-3.86-1.37c-1.44-0.36-2.91-0.72-4.4-1.09c-1.14-0.27-2.28-0.55-3.43-0.84
			c-1.14-0.29-2.24-0.64-3.3-1.06c-1.05-0.42-2.04-0.9-2.95-1.47c-0.91-0.56-1.7-1.25-2.37-2.06c-0.67-0.81-1.2-1.76-1.58-2.85
			c-0.39-1.08-0.58-2.35-0.58-3.8c0-2.01,0.4-3.74,1.19-5.17c0.79-1.43,1.9-2.61,3.31-3.53c1.41-0.92,3.08-1.59,5.01-2.02
			c1.93-0.43,4.01-0.64,6.26-0.64c2.57,0,4.77,0.21,6.59,0.62c1.82,0.42,3.35,1.04,4.59,1.87c1.24,0.83,2.24,1.87,2.99,3.11
			c0.76,1.24,1.35,2.68,1.8,4.33l-6.53,0.99c-0.23-1.01-0.59-1.88-1.07-2.63c-0.48-0.75-1.11-1.37-1.87-1.87
			c-0.77-0.5-1.69-0.88-2.79-1.13c-1.09-0.25-2.38-0.38-3.85-0.38c-1.72,0-3.17,0.16-4.33,0.48c-1.16,0.32-2.1,0.76-2.8,1.32
			c-0.71,0.56-1.21,1.22-1.51,1.96c-0.3,0.75-0.45,1.54-0.45,2.4c0,1.18,0.28,2.15,0.84,2.92c0.56,0.76,1.33,1.4,2.29,1.92
			c0.97,0.51,2.1,0.95,3.4,1.31c1.3,0.36,2.69,0.72,4.18,1.09c1.24,0.29,2.49,0.59,3.75,0.9c1.26,0.31,2.46,0.67,3.6,1.09
			c1.14,0.42,2.21,0.92,3.21,1.5c1,0.58,1.86,1.3,2.6,2.15c0.74,0.85,1.31,1.85,1.73,3.01C34.52,73.19,34.73,74.55,34.73,76.12z"/>
		<path class="st0" d="M80.99,87.91H50.35V45.69h29.36v5.26H57.09v12.84h20.82v5.14H57.09v13.79h23.9V87.91z"/>
		<path class="st0" d="M97.04,87.91V45.69h6.74v17.54h23.09V45.69h6.56v42.23h-6.56V68.8h-23.09v19.11H97.04z"/>
		<path class="st0" d="M182.71,84.03c-1.2,0.88-2.55,1.65-4.04,2.31c-1.49,0.66-3.12,1.18-4.88,1.57c-1.76,0.39-3.64,0.58-5.63,0.58
			c-3.41,0-6.37-0.54-8.89-1.63c-2.52-1.08-4.61-2.6-6.27-4.54c-1.67-1.95-2.91-4.26-3.73-6.93c-0.82-2.67-1.23-5.6-1.23-8.8
			c0-3.29,0.41-6.26,1.22-8.92c0.81-2.65,2.04-4.91,3.69-6.77c1.64-1.86,3.71-3.29,6.19-4.3c2.48-1.01,5.37-1.51,8.68-1.51
			c2.4,0,4.52,0.26,6.35,0.78c1.83,0.52,3.43,1.23,4.79,2.13c1.37,0.9,2.53,1.97,3.48,3.21c0.96,1.24,1.77,2.57,2.43,3.98
			l-6.07,2.18c-0.43-0.93-0.95-1.82-1.58-2.66c-0.63-0.84-1.39-1.58-2.28-2.22c-0.89-0.64-1.92-1.15-3.09-1.53
			c-1.17-0.38-2.51-0.57-4.02-0.57c-2.27,0-4.21,0.39-5.84,1.16c-1.63,0.77-2.97,1.86-4.04,3.27c-1.07,1.4-1.85,3.1-2.35,5.1
			c-0.5,1.99-0.76,4.21-0.76,6.65c0,2.42,0.28,4.65,0.84,6.68c0.56,2.03,1.4,3.79,2.51,5.26c1.11,1.47,2.5,2.61,4.17,3.43
			c1.66,0.81,3.6,1.22,5.81,1.22c1.39,0,2.68-0.13,3.85-0.41c1.17-0.27,2.23-0.61,3.19-1.03c0.96-0.42,1.81-0.89,2.56-1.41
			c0.74-0.52,1.37-1.05,1.87-1.57v-7.32h-11.35v-5.02h17.54v14.84C184.95,82.23,183.91,83.15,182.71,84.03z"/>
		<path class="st0" d="M234.98,79.29c-0.92,2.09-2.19,3.82-3.8,5.18c-1.62,1.36-3.53,2.38-5.74,3.03c-2.21,0.66-4.6,0.99-7.17,0.99
			c-2.48,0-4.76-0.31-6.85-0.93c-2.09-0.62-3.91-1.58-5.44-2.89c-1.54-1.31-2.74-2.97-3.6-5c-0.86-2.02-1.29-4.43-1.29-7.22V45.69
			h6.74v26.17c0,1.99,0.27,3.71,0.81,5.14c0.54,1.43,1.29,2.6,2.25,3.51c0.96,0.91,2.09,1.58,3.4,2.02
			c1.31,0.44,2.71,0.65,4.22,0.65c1.51,0,2.94-0.23,4.3-0.68c1.35-0.46,2.55-1.16,3.57-2.12c1.03-0.96,1.84-2.17,2.44-3.64
			c0.6-1.47,0.9-3.21,0.9-5.23V45.69h6.65v26.17C236.36,74.72,235.9,77.2,234.98,79.29z"/>
		<path class="st0" d="M283.46,45.69v5.37H269v36.85h-6.68V51.06H248.3v-5.37H283.46z"/>
	</g>
	<g>
		<path class="st0" d="M18.07,119.67c0,1.35-0.19,2.57-0.56,3.68c-0.37,1.1-0.91,2.05-1.61,2.83c-0.7,0.78-1.56,1.39-2.56,1.82
			c-1.01,0.43-2.15,0.65-3.42,0.65c-1.35,0-2.54-0.22-3.55-0.67c-1.01-0.45-1.86-1.07-2.54-1.87c-0.68-0.8-1.19-1.74-1.53-2.84
			c-0.34-1.1-0.51-2.3-0.51-3.59c0-1.35,0.18-2.56,0.53-3.65c0.36-1.09,0.88-2.01,1.57-2.78c0.69-0.76,1.54-1.35,2.55-1.76
			c1.01-0.42,2.17-0.62,3.49-0.62c1.31,0,2.47,0.21,3.48,0.63c1.01,0.42,1.87,1.02,2.56,1.78c0.69,0.77,1.22,1.69,1.57,2.77
			C17.89,117.12,18.07,118.33,18.07,119.67z M16.23,119.67c0-1.1-0.13-2.11-0.4-3.01c-0.27-0.91-0.67-1.68-1.21-2.32
			c-0.54-0.64-1.2-1.13-1.99-1.48c-0.79-0.35-1.7-0.52-2.73-0.52c-1.05,0-1.98,0.18-2.77,0.52c-0.79,0.35-1.45,0.84-1.99,1.48
			c-0.53,0.64-0.93,1.41-1.19,2.32c-0.26,0.91-0.4,1.91-0.4,3.01s0.14,2.11,0.41,3.02c0.27,0.92,0.68,1.71,1.22,2.37
			s1.2,1.18,1.99,1.55c0.78,0.37,1.69,0.55,2.73,0.55c1.09,0,2.04-0.19,2.84-0.56c0.8-0.37,1.45-0.89,1.97-1.56
			c0.51-0.67,0.9-1.46,1.15-2.38C16.11,121.76,16.23,120.76,16.23,119.67z"/>
		<path class="st0" d="M42.83,122.86v-1.47h6.01v1.47H42.83z"/>
		<path class="st0" d="M86.56,116.22c0,0.71-0.12,1.38-0.36,2.01c-0.24,0.64-0.6,1.2-1.09,1.68c-0.48,0.48-1.09,0.86-1.82,1.15
			c-0.73,0.29-1.58,0.43-2.55,0.43h-4.53v6.89h-1.76v-17.28h6.13c0.99,0,1.86,0.12,2.6,0.37c0.74,0.25,1.37,0.59,1.87,1.03
			c0.5,0.44,0.88,0.98,1.13,1.61C86.44,114.76,86.56,115.46,86.56,116.22z M84.77,116.24c0-1.17-0.37-2.08-1.1-2.73
			c-0.73-0.65-1.83-0.98-3.29-0.98h-4.17v7.57h4.27c0.74,0,1.37-0.1,1.91-0.29c0.54-0.19,0.98-0.47,1.34-0.81
			c0.35-0.35,0.61-0.76,0.78-1.22C84.68,117.3,84.77,116.79,84.77,116.24z"/>
		<path class="st0" d="M111.13,122.86v-1.47h6.01v1.47H111.13z"/>
		<path class="st0" d="M148.56,112.6v15.79h-1.8V112.6h-6.07v-1.49h13.93v1.49H148.56z"/>
		<path class="st0" d="M178.1,122.86v-1.47h6.01v1.47H178.1z"/>
		<path class="st0" d="M209.73,128.39v-17.28h1.76v17.28H209.73z"/>
		<path class="st0" d="M237.04,122.86v-1.47h6.01v1.47H237.04z"/>
		<path class="st0" d="M279.57,128.39l-7.28-8.93l-1.85,1.9v7.02h-1.76v-17.28h1.76v8.26l8.1-8.26h2.1l-7.21,7.24l8.27,10.04H279.57
			z"/>
	</g>
</g>
</svg>
